<svg id="Capa_1" enable-background="new 0 0 512 512" height="512" viewBox="0 0 512 512" width="512" xmlns="http://www.w3.org/2000/svg"><g><path d="m202.258 123.823c-3.602 1.985-8.17.708-10.156-2.922-2.014-3.604-.709-8.169 2.894-10.155 13.39-7.49 28.765-10.185 43.572-8.142 14.524 2.014 28.48 8.538 39.572 19.602l9.105 9.134c1.561 1.562 2.043 1.562 3.631 0 18.1-18.126 31.148-29.417 58.267-29.417 38.523 0 69.472 30.949 69.472 69.473 0 7.857-1.333 15.715-3.943 23.203h41.303c4.142 0 7.489 3.348 7.489 7.49v154.401c0 13.135-5.361 25.077-14.014 33.701-8.623 8.652-20.565 14.014-33.7 14.014h-233.604-43.515c-7.347 0-14.014 3.006-18.836 7.857-4.851 4.822-7.858 11.489-7.858 18.836 0 7.318 3.007 13.985 7.858 18.836 4.822 4.822 11.489 7.829 18.836 7.829h2.241c1.56-8.708 5.787-16.51 11.772-22.496 7.687-7.687 18.296-12.452 30.041-12.452 11.716 0 22.325 4.766 30.013 12.452 5.985 5.986 10.212 13.788 11.773 22.496h149.495c1.561-8.708 5.787-16.51 11.772-22.496 7.688-7.687 18.297-12.452 30.013-12.452 11.744 0 22.353 4.766 30.012 12.452 7.689 7.688 12.454 18.298 12.454 30.014s-4.766 22.325-12.454 30.012c-7.658 7.689-18.268 12.426-30.012 12.426-11.716 0-22.325-4.737-30.013-12.426-5.985-6.013-10.212-13.786-11.772-22.523h-149.496c-1.561 8.737-5.788 16.511-11.773 22.523-7.688 7.689-18.296 12.426-30.013 12.426-11.744 0-22.354-4.737-30.041-12.426-5.986-6.013-10.212-13.786-11.772-22.523h-2.241c-11.489 0-21.9-4.681-29.445-12.225-7.574-7.546-12.255-17.985-12.255-29.445 0-11.488 4.681-21.899 12.255-29.445 7.546-7.574 17.957-12.255 29.445-12.255h33.359c-25.417-82.436-50.834-164.842-76.279-247.277h-66.293c-3.943 0-7.545 1.617-10.155 4.228-2.638 2.61-4.255 6.212-4.255 10.154 0 3.972 1.617 7.574 4.255 10.185 2.61 2.61 6.212 4.227 10.155 4.227h23.829c4.142 0 7.517 3.376 7.517 7.518s-3.375 7.489-7.517 7.489h-23.829c-8.113 0-15.46-3.291-20.793-8.624-5.305-5.336-8.624-12.684-8.624-20.797 0-8.084 3.319-15.431 8.623-20.764 5.333-5.333 12.709-8.624 20.793-8.624h71.826c3.205 0 6.155 2.071 7.148 5.305l19.233 62.379h35.799c-1.56-4.425-2.638-8.964-3.29-13.559-2.042-14.836.681-30.212 8.142-43.6 2.014-3.603 6.553-4.908 10.184-2.894 3.603 2.014 4.908 6.553 2.894 10.185-5.872 10.495-7.999 22.579-6.383 34.238 1.646 11.772 7.035 22.637 15.404 31.005 32.282 32.283 64.592 64.593 96.873 96.875 1.646 1.645 1.93 1.673 3.603 0 32.282-32.282 64.564-64.592 96.847-96.875 10.268-10.24 15.942-24.083 15.942-38.578 0-30.184-24.311-54.465-54.494-54.465-23.233 0-33.699 11.006-47.714 25.019-3.801 3.801-8.027 5.589-12.367 5.589-4.568 0-8.795-1.958-12.426-5.589l-9.104-9.105c-8.71-8.71-19.659-13.845-31.006-15.404-11.66-1.617-23.744.509-34.269 6.382zm232.894 321.854c-4.963-4.963-11.828-8.027-19.402-8.027s-14.439 3.064-19.403 8.027c-4.964 4.965-8.028 11.83-8.028 19.404 0 7.573 3.064 14.439 8.028 19.402 4.965 4.965 11.829 8.028 19.403 8.028s14.44-3.063 19.402-8.028c4.965-4.963 8.057-11.829 8.057-19.402 0-7.574-3.092-14.439-8.057-19.404zm-233.064 0c-4.964-4.963-11.829-8.027-19.403-8.027-7.602 0-14.439 3.064-19.403 8.027-4.965 4.965-8.056 11.83-8.056 19.404 0 7.573 3.091 14.439 8.056 19.402 4.964 4.965 11.801 8.028 19.403 8.028 7.574 0 14.439-3.063 19.403-8.028 4.964-4.963 8.028-11.829 8.028-19.402 0-7.574-3.064-14.439-8.028-19.404zm205.18-236.072c-2.552 3.886-5.531 7.574-8.935 10.977l-24.368 24.368h74.492v-35.346h-41.189zm-48.309 50.352-31.942 31.941h121.44v-31.941zm-46.948 46.948-10.553 10.553c-3.716 3.688-7.886 5.673-12.424 5.673-4.88 0-9.022-2.297-12.398-5.673l-10.552-10.553h-103.824l9.872 31.941h276.325v-31.941zm-60.961-15.007-31.913-31.941h-71.344l9.843 31.941zm-46.92-46.947-24.367-24.368c-3.404-3.403-6.383-7.092-8.936-10.977h-38.579l10.921 35.346h60.961zm-16.481 144.247h228.101c8.993 0 17.163-3.688 23.091-9.616 5.93-5.929 9.616-14.099 9.616-23.092v-2.638h-271.701zm274.765-306.338c2.922-2.949 7.688-2.949 10.609 0 2.922 2.922 2.922 7.66 0 10.609l-14.808 14.808c-2.241 2.242-5.163 3.688-8.34 3.745-3.857.057-6.61-1.674-9.162-4.227l-42.978-42.977c-6.892-6.893-10.325-15.942-10.325-25.019 0-9.05 3.433-18.1 10.325-24.992 6.894-6.893 15.942-10.326 24.992-10.326 9.077 0 18.127 3.434 25.02 10.326l1.957 1.958 1.986-1.958c6.099-6.099 13.928-9.503 21.984-10.155 10.383-.879 20.51 2.666 27.998 10.155 6.895 6.893 10.328 15.943 10.328 24.993 0 9.077-3.433 18.126-10.326 25.019l-4.595 4.596c-2.95 2.949-7.688 2.949-10.638 0-2.922-2.922-2.922-7.688 0-10.609l4.623-4.624c3.943-3.942 5.93-9.163 5.93-14.382 0-5.221-1.986-10.439-5.93-14.383-3.29-3.29-7.46-5.191-11.773-5.759-6.269-.794-12.425 1.192-16.991 5.759-3.688 3.688-6.949 7.915-12.794 7.772-5.673-.113-8.736-4.112-12.396-7.772-3.942-3.943-9.162-5.929-14.382-5.929s-10.439 1.985-14.383 5.929c-3.942 3.943-5.928 9.162-5.928 14.383 0 5.219 1.985 10.439 5.928 14.382l41.359 41.359z"/></g></svg>