<?xml version="1.0" encoding="iso-8859-1"?>
<!-- Generator: Adobe Illustrator 19.0.0, SVG Export Plug-In . SVG Version: 6.00 Build 0)  -->
<svg version="1.1" id="Capa_1" xmlns="http://www.w3.org/2000/svg" xmlns:xlink="http://www.w3.org/1999/xlink" x="0px" y="0px"
	 viewBox="0 0 512 512" style="enable-background:new 0 0 512 512;" xml:space="preserve">
<g>
	<path style="fill:#C60024;" d="M495.078,59.733v213.333c0.205,28.032-22.315,50.935-50.347,51.2H344.038V8.533h100.693
		C472.764,8.798,495.283,31.701,495.078,59.733z"/>
	<path style="fill:#C60024;" d="M318.865,349.867v102.4c0.205,28.032-22.315,50.935-50.347,51.2H58.735
		c-28.032-0.265-50.551-23.168-50.347-51.2v-102.4H318.865z"/>
</g>
<g>
	<polygon style="fill:#C7E1FA;" points="218.172,136.533 192.998,179.2 167.825,136.533 	"/>
	<polygon style="fill:#C7E1FA;" points="167.825,136.533 134.255,179.2 109.082,136.533 	"/>
</g>
<g>
	<polygon style="fill:#A4C8EB;" points="218.172,136.533 234.948,179.2 192.998,179.2 	"/>
	<polygon style="fill:#A4C8EB;" points="109.082,136.533 134.255,179.2 92.305,179.2 	"/>
	<polygon style="fill:#A4C8EB;" points="167.825,136.533 192.998,179.2 134.255,179.2 	"/>
</g>
<polygon style="fill:#0C67B4;" points="234.948,179.2 184.602,221.867 163.627,221.867 142.652,221.867 92.305,179.2 134.255,179.2 
	192.998,179.2 "/>
<path style="fill:#FFD31F;" d="M285.295,345.6v4.267h-33.562V345.6c0.674-48.657-38.221-88.653-86.878-89.335
	c-48.657-0.683-88.661,38.221-89.335,86.886c-0.009,0.819-0.009,1.638,0,2.449v4.267H41.958V345.6
	c-0.58-67.755,53.888-123.153,121.643-123.733c0.009,0,0.017,0,0.026,0c67.755,0.563,122.231,55.953,121.668,123.708
	C285.295,345.583,285.295,345.591,285.295,345.6z"/>
<g>
	<rect x="159.428" y="51.2" style="fill:#C7E1FA;" width="16.785" height="25.6"/>
	<polygon style="fill:#C7E1FA;" points="119.74,86.878 111.181,62.899 126.967,57.079 135.518,81.058 	"/>
	<polygon style="fill:#C7E1FA;" points="85.879,110.276 69.683,90.65 82.534,79.684 98.731,99.311 	"/>
	<polygon style="fill:#C7E1FA;" points="61.926,143.923 40.115,131.123 48.503,116.343 70.315,129.143 	"/>
	<polygon style="fill:#C7E1FA;" points="50.654,183.936 25.899,179.49 28.809,162.688 53.564,167.134 	"/>
	<polygon style="fill:#C7E1FA;" points="284.996,183.936 282.078,167.134 306.833,162.688 309.751,179.49 	"/>
	<polygon style="fill:#C7E1FA;" points="273.715,143.923 265.327,129.143 287.138,116.343 295.535,131.123 	"/>
	<polygon style="fill:#C7E1FA;" points="249.771,110.276 236.919,99.311 253.107,79.684 265.958,90.65 	"/>
	<polygon style="fill:#C7E1FA;" points="215.91,86.878 200.124,81.058 208.683,57.079 224.461,62.899 	"/>
</g>
<path d="M332.8,452.267v-102.4c0-4.71-3.823-8.533-8.533-8.533h-25.813c-1.869-56.687-39.646-105.89-93.926-122.342l39.876-33.229
	c2.842-2.364,3.831-6.298,2.458-9.728l-17.067-42.667c-1.297-3.243-4.437-5.367-7.927-5.367H110.933c-3.49,0-6.63,2.125-7.927,5.367
	l-17.067,42.667c-1.374,3.43-0.384,7.364,2.458,9.728l39.876,33.229c-54.281,16.452-92.058,65.655-93.926,122.342H8.533
	c-4.71,0-8.533,3.823-8.533,8.533v102.4C0.043,485.239,26.761,511.957,59.733,512h213.333
	C306.039,511.957,332.757,485.239,332.8,452.267z M220.331,155.674l5.973,14.993h-14.967L220.331,155.674z M206.797,145.067
	l-10.53,17.553l-10.53-17.553H206.797z M169.668,151.45l11.529,19.217h-26.906L169.668,151.45z M152.909,145.067l-15.36,19.217
	l-11.546-19.217H152.909z M112.469,155.674l8.994,14.993H106.47L112.469,155.674z M117.436,187.733h97.929l-30.72,25.6h-36.489
	L117.436,187.733z M166.4,230.4c61.909,0.068,112.691,49.067,114.987,110.933H264.32c-2.261-54.076-47.932-96.085-102.007-93.833
	c-50.918,2.125-91.708,42.914-93.833,93.833H51.413C53.709,279.467,104.491,230.468,166.4,230.4z M247.253,341.333H85.547
	c2.338-44.655,40.439-78.959,85.086-76.621C212.019,266.889,245.086,299.947,247.253,341.333z M17.067,452.267V358.4h298.667v93.867
	c-0.026,23.552-19.115,42.641-42.667,42.667H59.733C36.181,494.908,17.092,475.819,17.067,452.267z"/>
<path d="M452.267,0h-102.4c-4.71,0-8.533,3.823-8.533,8.533v315.733c0,4.71,3.823,8.533,8.533,8.533h102.4
	c32.973-0.043,59.691-26.761,59.733-59.733V59.733C511.957,26.761,485.239,0.043,452.267,0z M494.933,273.067
	c-0.026,23.552-19.115,42.641-42.667,42.667H358.4V17.067h93.867c23.552,0.026,42.641,19.115,42.667,42.667V273.067z"/>
<rect x="162.133" y="51.2" width="17.067" height="25.6"/>
<rect x="116.895" y="59.179" transform="matrix(-0.9397 0.3419 -0.3419 -0.9397 267.8989 96.7347)" width="17.058" height="25.599"/>
<rect x="77.13" y="82.151" transform="matrix(-0.7659 0.6429 -0.6429 -0.7659 212.3137 112.6036)" width="17.057" height="25.599"/>
<rect x="47.585" y="117.333" transform="matrix(-0.4999 0.8661 -0.8661 -0.4999 196.8783 146.5827)" width="17.067" height="25.6"/>
<rect x="31.853" y="160.503" transform="matrix(-0.1738 0.9848 -0.9848 -0.1738 218.0672 163.655)" width="17.058" height="25.6"/>
<rect x="288.126" y="164.782" transform="matrix(-0.9848 0.1738 -0.1738 -0.9848 627.3936 291.685)" width="25.6" height="17.058"/>
<rect x="272.419" y="121.616" transform="matrix(-0.8661 0.4999 -0.4999 -0.8661 597.3048 100.2909)" width="25.6" height="17.067"/>
<rect x="242.899" y="86.411" transform="matrix(-0.6429 0.766 -0.766 -0.6429 492.8034 -39.8832)" width="25.601" height="17.059"/>
<rect x="203.096" y="63.453" transform="matrix(-0.3419 0.9397 -0.9397 -0.3419 357.3573 -106.2907)" width="25.599" height="17.058"/>
<g>
</g>
<g>
</g>
<g>
</g>
<g>
</g>
<g>
</g>
<g>
</g>
<g>
</g>
<g>
</g>
<g>
</g>
<g>
</g>
<g>
</g>
<g>
</g>
<g>
</g>
<g>
</g>
<g>
</g>
</svg>
