<svg height="512" viewBox="0 0 512 512" width="512" xmlns="http://www.w3.org/2000/svg"><g id="outline"><path d="m112.572 405.029a8 8 0 0 0 1.482 8.323l72 80a8 8 0 0 0 13.536-2.822l33.422-100.268q8.674-26.025 18.988-51.4c6.874 16.929 13.238 34.15 18.987 51.4l33.423 100.268a8 8 0 0 0 13.536 2.822l72-80a8 8 0 0 0 1.482-8.323l-21.56-53.9c-16.157-40.39-38.172-84.694-62.1-125.029q15.08-25.567 31.937-50.095l3.585-5.214a94.571 94.571 0 0 0 16.71-53.8 95.562 95.562 0 0 0 -18.993-56.98 88.882 88.882 0 0 0 -23.439-21.869 122.162 122.162 0 0 0 -141.868 7.858 56.061 56.061 0 0 0 -9.768 10.1l-2.936 3.915a95.562 95.562 0 0 0 -18.996 56.974 94.564 94.564 0 0 0 16.711 53.8l3.584 5.214c11.16 16.232 21.884 33.051 31.915 50.055a874.78 874.78 0 0 0 -62.077 125.068zm242.441-47.958 19.711 49.278-59.479 66.087-29.078-87.236c-7.525-22.578-16.09-45.1-25.456-67.012q17.034-38.98 37.874-76.122c21.737 37.504 41.603 77.946 56.428 115.005zm-46.022-305.424a69.369 69.369 0 0 1 7.893 5.841l-29.494 39.326a122.68 122.68 0 0 0 -70.621.211l-29.7-39.6a106.143 106.143 0 0 1 121.922-5.778zm-56.991 92.353-24.909-33.211a106.7 106.7 0 0 1 49.949-.174zm-74.52 22.94-3.584-5.214a78.632 78.632 0 0 1 -13.896-44.737 79.463 79.463 0 0 1 15.794-47.381l.206-.274 31.487 41.982.013.018 34.526 46.034c-12.736 17.271-24.922 35.138-36.364 53.322-8.962-14.85-18.401-29.523-28.182-43.75zm34.931 63.247c.021-.035.033-.071.053-.106 14.322-23.54 29.965-46.653 46.5-68.7l69.036-92.041c.068.091.142.177.21.268a79.463 79.463 0 0 1 15.79 47.381 78.638 78.638 0 0 1 -13.895 44.737l-3.585 5.214a871.782 871.782 0 0 0 -108.688 218.26l-29.077 87.233-59.479-66.087 19.712-49.278a858.7 858.7 0 0 1 63.423-126.881z"/></g></svg>