<?xml version="1.0" encoding="iso-8859-1"?>
<!-- Generator: Adobe Illustrator 19.0.0, SVG Export Plug-In . SVG Version: 6.00 Build 0)  -->
<svg version="1.1" id="Capa_1" xmlns="http://www.w3.org/2000/svg" xmlns:xlink="http://www.w3.org/1999/xlink" x="0px" y="0px"
	 viewBox="0 0 480.176 480.176" style="enable-background:new 0 0 480.176 480.176;" xml:space="preserve">
<g>
	<g>
		<path d="M240.088,184c-70.658,0.084-127.916,57.342-128,128c0,70.692,57.308,128,128,128s128-57.308,128-128
			S310.78,184,240.088,184z M240.088,424c-61.856,0-112-50.144-112-112s50.144-112,112-112c61.829,0.066,111.934,50.172,112,112
			C352.088,373.856,301.944,424,240.088,424z"/>
	</g>
</g>
<g>
	<g>
		<rect x="48.088" y="48" width="48" height="16"/>
	</g>
</g>
<g>
	<g>
		<rect x="68.083" y="-5.541" transform="matrix(0.3714 -0.9285 0.9285 0.3714 32.9727 80.6982)" width="16" height="43.08"/>
	</g>
</g>
<g>
	<g>
		<rect x="54.543" y="88.004" transform="matrix(0.9286 -0.3711 0.3711 0.9286 -30.1917 35.0853)" width="43.08" height="16"/>
	</g>
</g>
<g>
	<g>
		<rect x="384.088" y="48" width="48" height="16"/>
	</g>
</g>
<g>
	<g>
		<rect x="382.546" y="8" transform="matrix(0.9286 -0.3711 0.3711 0.9286 22.9111 151.0819)" width="43.08" height="16"/>
	</g>
</g>
<g>
	<g>
		<rect x="396.054" y="74.491" transform="matrix(0.3714 -0.9285 0.9285 0.3714 164.833 435.5236)" width="16" height="43.08"/>
	</g>
</g>
<g>
	<g>
		<path d="M395.42,248.132c-17.057-41.398-49.934-74.275-91.332-91.332V112c-0.026-2.958-1.694-5.655-4.328-7l34.616-44.056
			c0.136-0.176,0.2-0.376,0.32-0.56c0.161-0.194,0.31-0.397,0.448-0.608c0.072-0.136,0.096-0.288,0.16-0.432
			c0.137-0.312,0.255-0.633,0.352-0.96c0.121-0.366,0.215-0.74,0.28-1.12c0.049-0.331,0.079-0.665,0.088-1
			c0.028-0.381,0.028-0.763,0-1.144c-0.037-0.337-0.099-0.672-0.184-1c-0.089-0.379-0.207-0.751-0.352-1.112
			c-0.072-0.168-0.088-0.344-0.168-0.504c-0.08-0.16-0.2-0.28-0.288-0.44c-0.088-0.16-0.144-0.344-0.248-0.504l-32-48
			c-0.19-0.246-0.393-0.481-0.608-0.704c-0.198-0.251-0.409-0.491-0.632-0.72c-0.331-0.297-0.687-0.564-1.064-0.8
			c-0.184-0.12-0.352-0.272-0.552-0.376c-0.378-0.19-0.771-0.348-1.176-0.472c-0.256-0.088-0.496-0.2-0.8-0.264
			c-0.338-0.067-0.68-0.11-1.024-0.128c-0.278-0.048-0.558-0.08-0.84-0.096h-112c-0.28,0-0.536,0.08-0.8,0.104
			c-0.357,0.021-0.713,0.066-1.064,0.136c-0.248,0.064-0.48,0.168-0.728,0.248c-0.413,0.129-0.814,0.293-1.2,0.488
			c-0.192,0.104-0.352,0.24-0.536,0.36c-0.383,0.234-0.745,0.502-1.08,0.8c-0.222,0.222-0.428,0.46-0.616,0.712
			c-0.223,0.224-0.431,0.462-0.624,0.712l-32,48c-0.104,0.16-0.152,0.344-0.248,0.504c-0.096,0.16-0.216,0.28-0.288,0.44
			c-0.072,0.16-0.096,0.336-0.168,0.504c-0.145,0.361-0.263,0.733-0.352,1.112c-0.085,0.328-0.147,0.663-0.184,1
			c-0.041,0.38-0.055,0.762-0.04,1.144c0.009,0.335,0.039,0.669,0.088,1c0.065,0.38,0.159,0.754,0.28,1.12
			c0.097,0.327,0.215,0.648,0.352,0.96c0.064,0.144,0.088,0.296,0.16,0.432c0.138,0.211,0.287,0.414,0.448,0.608
			c0.12,0.184,0.184,0.384,0.32,0.56L180.424,105c-2.638,1.342-4.309,4.041-4.336,7v44.8
			C90.301,192.146,49.41,290.344,84.756,376.132c35.346,85.787,133.544,126.678,219.332,91.332S430.766,333.919,395.42,248.132z
			 M258.984,131.008L278.128,64h33.496L258.984,131.008z M288.088,152H262.84l25.136-32L288.088,152z M240.088,138.872
			l-8.304-29.072L218.696,64h42.784l-2.216,7.76L240.088,138.872z M297.08,23.904L313.144,48h-28.112L297.08,23.904z M283.144,16
			l-12.048,24.088L255.032,16H283.144z M257.144,48h-34.112l17.056-25.6L257.144,48z M225.144,16L209.08,40.088L197.032,16H225.144z
			 M183.096,23.904L195.144,48h-28.112L183.096,23.904z M168.552,64h33.496l19.144,67.008L168.552,64z M217.336,152h-25.248v-32
			L217.336,152z M240.144,464.056c-83.947,0.031-152.025-67.997-152.056-151.944C88.064,246.833,129.724,188.828,191.592,168h96.992
			c61.898,20.72,103.591,78.726,103.504,144C392.119,395.947,324.091,464.025,240.144,464.056z"/>
	</g>
</g>
<g>
</g>
<g>
</g>
<g>
</g>
<g>
</g>
<g>
</g>
<g>
</g>
<g>
</g>
<g>
</g>
<g>
</g>
<g>
</g>
<g>
</g>
<g>
</g>
<g>
</g>
<g>
</g>
<g>
</g>
</svg>
